<?xml version="1.0" encoding="utf-8"?>
<!-- Generator: Adobe Illustrator 24.0.0, SVG Export Plug-In . SVG Version: 6.00 Build 0)  -->
<svg version="1.1" id="Capa_1" xmlns="http://www.w3.org/2000/svg" xmlns:xlink="http://www.w3.org/1999/xlink" x="0px" y="0px"
	 viewBox="0 0 61.3 62.6" style="enable-background:new 0 0 61.3 62.6;" xml:space="preserve">
<style type="text/css">
	.st0{fill:#4285F4;}
	.st1{fill:#34A853;}
	.st2{fill:#FBBC05;}
	.st3{fill:#EB4335;}
</style>
<g>
	<path class="st0" d="M61.3,32c0-2.6-0.2-4.5-0.7-6.4H31.3v11.6h17.2c-0.3,2.9-2.2,7.2-6.4,10.2l-0.1,0.4l9.3,7.2L52,55
		C57.9,49.5,61.3,41.5,61.3,32"/>
	<path class="st1" d="M31.3,62.6c8.4,0,15.5-2.8,20.7-7.6l-9.9-7.6c-2.6,1.8-6.2,3.1-10.8,3.1c-8.3,0-15.3-5.5-17.8-13l-0.4,0
		L3.5,45l-0.1,0.4C8.5,55.6,19.1,62.6,31.3,62.6"/>
	<path class="st2" d="M13.5,37.5c-0.7-1.9-1-4-1-6.2c0-2.2,0.4-4.2,1-6.2l0-0.4l-9.8-7.6l-0.3,0.2c-2.1,4.2-3.3,9-3.3,14
		s1.2,9.8,3.3,14L13.5,37.5"/>
	<path class="st3" d="M31.3,12.1c5.9,0,9.8,2.5,12.1,4.7l8.8-8.6C46.8,3.1,39.7,0,31.3,0C19.1,0,8.5,7,3.3,17.2l10.1,7.9
		C16,17.6,23,12.1,31.3,12.1"/>
</g>
</svg>
